<!--
  - Copyright (c) 2024, Nordic Semiconductor
  - All rights reserved.
  -
  - Redistribution and use in source and binary forms, with or without modification, are
  - permitted provided that the following conditions are met:
  -
  - 1. Redistributions of source code must retain the above copyright notice, this list of
  - conditions and the following disclaimer.
  -
  - 2. Redistributions in binary form must reproduce the above copyright notice, this list
  - of conditions and the following disclaimer in the documentation and/or other materials
  - provided with the distribution.
  -
  - 3. Neither the name of the copyright holder nor the names of its contributors may be
  - used to endorse or promote products derived from this software without specific prior
  - written permission.
  -
  - THIS SOFTWARE IS PROVIDED BY THE COPYRIGHT HOLDERS AND CONTRIBUTORS
  - "AS IS" AND ANY EXPRESS OR IMPLIED WARRANTIES, INCLUDING, BUT NOT LIMITED
  - TO, THE IMPLIED WARRANTIES OF MERCHANTABILITY AND FITNESS FOR A
  - PARTICULAR PURPOSE ARE DISCLAIMED. IN NO EVENT SHALL THE COPYRIGHT
  - HOLDER OR CONTRIBUTORS BE LIABLE FOR ANY DIRECT, INDIRECT, INCIDENTAL,
  - SPECIAL, EXEMPLARY, OR CONSEQUENTIAL DAMAGES (INCLUDING, BUT NOT
  - LIMITED TO, PROCUREMENT OF SUBSTITUTE GOODS OR SERVICES; LOSS OF USE, DATA,
  - OR PROFITS; OR BUSINESS INTERRUPTION) HOWEVER CAUSED AND ON ANY THEORY
  - OF LIABILITY, WHETHER IN CONTRACT, STRICT LIABILITY, OR TORT (INCLUDING
  - NEGLIGENCE OR OTHERWISE) ARISING IN ANY WAY OUT OF THE USE OF THIS SOFTWARE,
  - EVEN IF ADVISED OF THE POSSIBILITY OF SUCH DAMAGE.
  -->

<svg width="16" height="16" viewBox="0 0 16 16" fill="none" xmlns="http://www.w3.org/2000/svg">
<g id="classKotlin">
<g id="&#226;&#140;&#152;/modifier/kotlin">
<path id="&#226;&#140;&#152;/modifier/kotlin_2" d="M16 16H9V9H16L12.4 12.4L16 16Z" fill="#B99BF8"/>
</g>
<path id="Vector" fill-rule="evenodd" clip-rule="evenodd" d="M8 15C4.134 15 1 11.866 1 8C1 4.134 4.134 1 8 1C11.866 1 15 4.134 15 8H8V15Z" fill="#40B6E0" fill-opacity="0.6"/>
<path id="Vector_2" fill-rule="evenodd" clip-rule="evenodd" d="M8.00001 11.0004C6.36299 10.9992 5.00021 9.68165 5.00021 8.0004C5.00021 6.3584 6.34021 5.0004 8.09821 5.0004C9.28828 5.0004 9.82941 5.27018 10.5162 5.83673L9.90001 6.55426C9.54835 6.18475 8.94835 6 8.10001 6C6.97101 6 6.00001 6.7124 6.00001 8.0004C6.00001 9.23838 6.99405 9.97382 8.00001 9.99976V11.0004V11.0004Z" fill="#231F20" fill-opacity="0.7"/>
</g>
</svg>
