<!--
  - Copyright (c) 2024, Nordic Semiconductor
  - All rights reserved.
  -
  - Redistribution and use in source and binary forms, with or without modification, are
  - permitted provided that the following conditions are met:
  -
  - 1. Redistributions of source code must retain the above copyright notice, this list of
  - conditions and the following disclaimer.
  -
  - 2. Redistributions in binary form must reproduce the above copyright notice, this list
  - of conditions and the following disclaimer in the documentation and/or other materials
  - provided with the distribution.
  -
  - 3. Neither the name of the copyright holder nor the names of its contributors may be
  - used to endorse or promote products derived from this software without specific prior
  - written permission.
  -
  - THIS SOFTWARE IS PROVIDED BY THE COPYRIGHT HOLDERS AND CONTRIBUTORS
  - "AS IS" AND ANY EXPRESS OR IMPLIED WARRANTIES, INCLUDING, BUT NOT LIMITED
  - TO, THE IMPLIED WARRANTIES OF MERCHANTABILITY AND FITNESS FOR A
  - PARTICULAR PURPOSE ARE DISCLAIMED. IN NO EVENT SHALL THE COPYRIGHT
  - HOLDER OR CONTRIBUTORS BE LIABLE FOR ANY DIRECT, INDIRECT, INCIDENTAL,
  - SPECIAL, EXEMPLARY, OR CONSEQUENTIAL DAMAGES (INCLUDING, BUT NOT
  - LIMITED TO, PROCUREMENT OF SUBSTITUTE GOODS OR SERVICES; LOSS OF USE, DATA,
  - OR PROFITS; OR BUSINESS INTERRUPTION) HOWEVER CAUSED AND ON ANY THEORY
  - OF LIABILITY, WHETHER IN CONTRACT, STRICT LIABILITY, OR TORT (INCLUDING
  - NEGLIGENCE OR OTHERWISE) ARISING IN ANY WAY OUT OF THE USE OF THIS SOFTWARE,
  - EVEN IF ADVISED OF THE POSSIBILITY OF SUCH DAMAGE.
  -->

<svg width="16" height="16" viewBox="0 0 16 16" fill="none" xmlns="http://www.w3.org/2000/svg">
<g id="objectKotlin">
<path id="Vector" fill-rule="evenodd" clip-rule="evenodd" d="M8 15C4.134 15 1 11.866 1 8C1 4.134 4.134 1 8 1C11.866 1 15 4.134 15 8H8V15Z" fill="#F4AF3D" fill-opacity="0.6"/>
<path id="Vector_2" fill-rule="evenodd" clip-rule="evenodd" d="M11 8H9.94262C9.94262 6.87293 9.13115 5.94475 7.9918 5.94475C6.85246 5.94475 6.05738 6.85635 6.05738 7.98343V8C6.05738 9.12437 6.86496 10.0508 8 10.0552V11C7.99727 11 7.99454 11 7.9918 11C6.22951 11 5 9.64917 5 8.01657V8C5 6.3674 6.2459 5 8.0082 5C9.77049 5 11 6.35083 11 7.98343V8Z" fill="#231F20" fill-opacity="0.7"/>
<g id="&#226;&#140;&#152;/modifier/kotlin">
<path id="&#226;&#140;&#152;/modifier/kotlin_2" d="M16 16H9V9H16L12.4 12.4L16 16Z" fill="#B99BF8"/>
</g>
</g>
</svg>
